<?xml version="1.0" encoding="utf-8"?>
<!-- Generator: Adobe Illustrator 27.0.0, SVG Export Plug-In . SVG Version: 6.00 Build 0)  -->
<svg version="1.1" id="Layer_1" xmlns="http://www.w3.org/2000/svg" xmlns:xlink="http://www.w3.org/1999/xlink" x="0px" y="0px"
	 viewBox="0 0 647.9 115.4" style="enable-background:new 0 0 647.9 115.4;" xml:space="preserve">
<style type="text/css">
	.st0{fill:url(#SVGID_1_);}
	.st1{fill:url(#SVGID_00000139265754195231539050000005492659018498917520_);}
</style>
<g>
	<g>
		<path d="M171.9,11.7c22.8,0,40.6,16.2,40.6,38.5c0,22.2-17.9,38.5-40.6,38.5h-24.3V11.7H171.9z M171,25.4H164V75h6.8
			c14.9,0,25.1-10.7,25.1-24.8S185.7,25.4,171,25.4z"/>
		<path d="M300.1,38.4L290,88.6h-16l15.9-76.9h16L322.8,62l16.8-50.3h15.8l15.9,76.9H355l-10.1-50.2l-17,50.2h-10.7L300.1,38.4z"/>
		<path d="M375.7,17.7c0-5.1,4.2-9.2,9.3-9.2c5,0,9.2,4.1,9.2,9.2c0,5.1-4.2,9.2-9.2,9.2C379.8,26.9,375.7,22.8,375.7,17.7z
			 M392.7,37.4v43.1c0,4.5-3.6,8.1-8.1,8.1h-7.4V37.4H392.7z"/>
		<path d="M427.5,115.4c-14.4,0-26.5-8.7-27.1-22.7h15.3c0.6,6.2,5.4,10,12,10c7.2,0,12.8-4.7,12.8-13.7v-6.5
			c-3.1,4-8.9,7.3-15.9,7.3c-14,0-25.3-11.5-25.3-26.8s11.3-26.8,25.3-26.8c7,0,12.9,3.4,15.9,7.3v-6.1H456v51
			C456,105.1,442.6,115.4,427.5,115.4z M427.8,76.5c7.5,0,13.1-5.8,13.1-13.5c0-7.7-5.6-13.5-13.1-13.5c-7.6,0-13.2,5.8-13.2,13.5
			C414.6,70.7,420.2,76.5,427.8,76.5z"/>
		<path d="M497.1,52.9c-1.8-0.6-3.5-0.8-5.4-0.8c-7.2,0-12.3,4.3-12.3,11.9v24.6h-5.8c-5.4,0-9.7-4.3-9.7-9.7V37.4h15.5v7.3
			c2.6-4.5,7.7-8.3,14-8.3c1.5,0,2.7,0.3,3.8,0.6V52.9z"/>
		<path d="M250.7,52.9c-1.8-0.6-3.5-0.8-5.4-0.8c-7.2,0-12.3,4.3-12.3,11.9v24.6h-5.8c-5.4,0-9.7-4.3-9.7-9.7V37.4H233v7.3
			c2.6-4.5,7.7-8.3,14-8.3c1.5,0,2.7,0.3,3.8,0.6V52.9z"/>
		<path d="M555.2,37.4v43.1c0,4.5-3.6,8.1-8.1,8.1h-7.4v-6.1c-3.1,4-8.9,7.3-15.9,7.3c-14,0-25.3-11.5-25.3-26.8
			s11.3-26.8,25.3-26.8c7,0,12.9,3.4,15.9,7.3v-6.1H555.2z M527,76.5c7.5,0,13.1-5.8,13.1-13.5c0-7.7-5.6-13.5-13.1-13.5
			c-7.6,0-13.2,5.8-13.2,13.5C513.9,70.7,519.5,76.5,527,76.5z"/>
		<path d="M560.9,37.4h7.8V20.8h15.5v16.6h10.3v13.4h-10.3v37.9h-15.5V50.8h-7.8V37.4z"/>
		<path d="M635,69.7l10.9,7.6c-4.9,8.1-13.4,12.6-23.3,12.6c-14.5,0-26.8-11.4-26.8-26.8c0-15.5,12.3-26.8,26.4-26.8
			c16.7,0,26.6,13.3,25.6,31h-37.7c1.5,6.3,6.5,10,12.5,10C628.7,77.2,632,74.3,635,69.7z M610.7,57.5h22.5
			c-0.7-4.4-4.2-8.8-10.8-8.8C617.1,48.7,612.6,52,610.7,57.5z"/>
	</g>
	<g>
		<g>
			<linearGradient id="SVGID_1_" gradientUnits="userSpaceOnUse" x1="0" y1="50.812" x2="75.3717" y2="50.812">
				<stop  offset="0" style="stop-color:#00FFFF"/>
				<stop  offset="8.477122e-02" style="stop-color:#0DEBFC"/>
				<stop  offset="0.4144" style="stop-color:#3DA0F1"/>
				<stop  offset="0.6874" style="stop-color:#5F69E9"/>
				<stop  offset="0.8901" style="stop-color:#7547E4"/>
				<stop  offset="1" style="stop-color:#7D3AE2"/>
			</linearGradient>
			<path class="st0" d="M24.6,101.6H0V90.3h24.6C46.3,90.3,64,72.6,64,50.8S46.3,11.3,24.6,11.3H0V0h24.6c28,0,50.8,22.8,50.8,50.8
				S52.6,101.6,24.6,101.6z"/>
		</g>
		<g>
			
				<linearGradient id="SVGID_00000155838819608858236760000016463465999386614664_" gradientUnits="userSpaceOnUse" x1="0" y1="50.812" x2="50.3348" y2="50.812">
				<stop  offset="0" style="stop-color:#00FFFF"/>
				<stop  offset="8.477122e-02" style="stop-color:#0DEBFC"/>
				<stop  offset="0.4144" style="stop-color:#3DA0F1"/>
				<stop  offset="0.6874" style="stop-color:#5F69E9"/>
				<stop  offset="0.8901" style="stop-color:#7547E4"/>
				<stop  offset="1" style="stop-color:#7D3AE2"/>
			</linearGradient>
			<path style="fill:url(#SVGID_00000155838819608858236760000016463465999386614664_);" d="M24.9,76.3H0V64.9h24.9
				c7.8,0,14.1-6.3,14.1-14.1s-6.3-14.1-14.1-14.1H0V25.4h24.9c14,0,25.4,11.4,25.4,25.4C50.3,64.8,38.9,76.3,24.9,76.3z"/>
		</g>
	</g>
</g>
</svg>
